{"title":"Dawn of the Planet of the Apes 2014 1080p BluRay Remux AVC DTS-H","uid":11502501,"size":27063153731,"categoryP":"video","categoryS":"hd___movies","magnet":"?xt=urn:btih:06697a4d2dfe6f15603945501ed54cd5e62c4b8a&amp;dn=Dawn+of+the+Planet+of+the+Apes+2014+1080p+BluRay+Remux+AVC+DTS-H&amp;tr=udp%3A%2F%2Ftracker.openbittorrent.com%3A80&amp;tr=udp%3A%2F%2Fopen.demonii.com%3A1337&amp;tr=udp%3A%2F%2Ftracker.coppersurfer.tk%3A6969&amp;tr=udp%3A%2F%2Fexodus.desync.com%3A6969","seeders":2,"leechers":1,"uploader":"Alemao99","files":4,"time":1416337563,"description":"After fifteen years after winning his freedom, Caesar (Andy Serkis) and the other monkeys live alone in the woods near San Francisco. They developed a relationship based on mutual support, so they can keep community. Meanwhile, the human face one of the largest outbreaks ever seen, caused by the monkey flu, a virus created in a laboratory. Given this, a group of sobvreviventes led by Dreyfus (Gary Oldman) plans to attack the monkeys to use them as guinea pigs in the search for a vaccine. But Malcolm (Jason Clarke) do not want this confrontation to happen.\n\nTitle in Portuguese: Planet of the Apes - The Confrontation\nOriginal Title: Dawn of the Planet of the Apes\nCountry of Origin: United States\nGenre: Action | Drama | Sci-Fi\nRunning time: 2 hours and 10 minutes\nDirector: Robert Rodriguez\nRelease Year: 2014\nIMDB: http://www.imdb.com/title/tt2103281/\n\nSize: 25.20 GB\nFile extension: .MKV\nVideo Quality: Blu-Ray - Remux\nVideo Codec: AVC | 22558 Kbps\nAudio Codec: DTS-HD MA | 7.1 | 5102 kbps &amp; AC3 | 5.1 | 384 Kbps\nResolution: 1920 x 1080\nAudio Language: Portuguese / English\nSubtitles: Portuguese (.str)\nEmbedded Subtitles: Portuguese / English\n\nSCREENS\n\n\n\nFormat                                   : Matroska\nFormat version                           : Version 2\nFile size                                : 25.2 GiB\nDuration                                 : 2h 10mn\nOverall bit rate mode                    : Variable\nOverall bit rate                         : 27.7 Mbps\nEncoded date                             : UTC 2014-11-11 02:38:49\nWriting application                      : mkvmerge v5.6.0 ('Kenya Kane') built on May 28 2012 06:47:39\nWriting library                          : libebml v1.2.2 + libmatroska v1.3.0\n\nVideo\nID                                       : 1\nFormat                                   : AVC\nFormat/Info                              : Advanced Video Codec\nFormat profile                           : &lt;a class=&quot;__cf_email__&quot; href=&quot;/cdn-cgi/l/email-protection&quot; data-cfemail=&quot;3f775658577f730b110e&quot;&gt;[email&amp;#160;protected]&lt;/a&gt;&lt;script cf-hash='f9e31' type=&quot;text/javascript&quot;&gt;\n/* &lt;![CDATA[ */!function(){try{var t=&quot;currentScript&quot;in document?document.currentScript:function(){for(var t=document.getElementsByTagName(&quot;script&quot;),e=t.length;e--;)if(t[e].getAttribute(&quot;cf-hash&quot;))return t[e]}();if(t&amp;&amp;t.previousSibling){var e,r,n,i,c=t.previousSibling,a=c.getAttribute(&quot;data-cfemail&quot;);if(a){for(e=&quot;&quot;,r=parseInt(a.substr(0,2),16),n=2;a.length-n;n+=2)i=parseInt(a.substr(n,2),16)^r,e+=String.fromCharCode(i);e=document.createTextNode(e),c.parentNode.replaceChild(e,c)}}}catch(u){}}();/* ]]&gt; */&lt;/script&gt;\nFormat settings, CABAC                   : Yes\nFormat settings, ReFrames                : 4 frames\nMuxing mode                              : Header stripping\nCodec ID                                 : V_MPEG4/ISO/AVC\nDuration                                 : 2h 10mn\nBit rate mode                            : Variable\nBit rate                                 : 25.1 Mbps\nMaximum bit rate                         : 35.5 Mbps\nWidth                                    : 1 920 pixels\nHeight                                   : 1 080 pixels\nDisplay aspect ratio                     : 16:9\nFrame rate                               : 23.976 fps\nColor space                              : YUV\nChroma subsampling                       : 4:2:0\nBit depth                                : 8 bits\nScan type                                : Progressive\nBits/(Pixel*Frame)                       : 0.506\nStream size                              : 22.9 GiB (91%)\nDefault                                  : No\nForced                                   : No\n\nAudio #1\nID                                       : 2\nFormat                                   : AC-3\nFormat/Info                              : Audio Coding 3\nMode extension                           : CM (complete main)\nFormat settings, Endianness              : Big\nMuxing mode                              : Header stripping\nCodec ID                                 : A_AC3\nDuration                                 : 2h 10mn\nBit rate mode                            : Constant\nBit rate                                 : 384 Kbps\nChannel(s)                               : 6 channels\nChannel positions                        : Front: L C R, Side: L R, LFE\nSampling rate                            : 48.0 KHz\nBit depth                                : 16 bits\nCompression mode                         : Lossy\nDelay relative to video                  : 2s 100ms\nStream size                              : 358 MiB (1%)\nLanguage                                 : Portuguese\nDefault                                  : Yes\nForced                                   : Yes\n\nAudio #2\nID                                       : 3\nFormat                                   : DTS\nFormat/Info                              : Digital Theater Systems\nFormat profile                           : MA / Core\nMuxing mode                              : Header stripping\nCodec ID                                 : A_DTS\nDuration                                 : 2h 10mn\nBit rate mode                            : Variable\nBit rate                                 : 1 597 Kbps / 1 510 Kbps\nChannel(s)                               : 8 channels / 6 channels\nChannel positions                        : Front: L C R, Side: L R, Back: L R, LFE / Front: L C R, Side: L R, LFE\nSampling rate                            : 48.0 KHz\nBit depth                                : 24 bits\nCompression mode                         : Lossless / Lossy\nLanguage                                 : English\nDefault                                  : No\nForced                                   : No\n\nText #1\nID                                       : 4\nFormat                                   : PGS\nMuxing mode                              : zlib\nCodec ID                                 : S_HDMV/PGS\nCodec ID/Info                            : The same subtitle format used on BDs/HD-DVDs\nLanguage                                 : Portuguese\nDefault                                  : No\nForced                                   : Yes\n\nText #2\nID                                       : 5\nFormat                                   : PGS\nMuxing mode                              : zlib\nCodec ID                                 : S_HDMV/PGS\nCodec ID/Info                            : The same subtitle format used on BDs/HD-DVDs\nLanguage                                 : English\nDefault                                  : No\nForced                                   : No\n\n\n\n\nSEED PLEASE\n\nENJOY","torrent":{"xt":"urn:btih:06697a4d2dfe6f15603945501ed54cd5e62c4b8a","amp;dn":"Dawn+of+the+Planet+of+the+Apes+2014+1080p+BluRay+Remux+AVC+DTS-H","amp;tr":["udp%3A%2F%2Ftracker.openbittorrent.com%3A80","udp%3A%2F%2Fopen.demonii.com%3A1337","udp%3A%2F%2Ftracker.coppersurfer.tk%3A6969","udp%3A%2F%2Fexodus.desync.com%3A6969"],"infoHash":"06697a4d2dfe6f15603945501ed54cd5e62c4b8a","infoHashBuffer":{"type":"Buffer","data":[6,105,122,77,45,254,111,21,96,57,69,80,30,213,76,213,230,44,75,138]},"announce":[],"urlList":[]}}